<svg width="201" height="80" viewBox="0 0 201 80" fill="none" xmlns="http://www.w3.org/2000/svg">
<g clip-path="url(#clip0_3804_140967)">
<path d="M32.8168 40.7134C32.8168 40.7134 34.0513 42.1433 34.8545 44.831C35.1843 45.9343 28.7758 48.7611 28.7758 48.7611C28.7758 48.7611 31.7136 46.2249 29.0195 44.9264C26.3255 43.6278 23.4252 44.7498 21.5015 37.3365C21.2328 36.2973 19.9592 35.8863 19.356 35.8863C17.9355 35.8863 13.1506 37.8553 13.1506 37.8553C13.1506 37.8553 12.8491 38.3522 12.5662 38.6257C12.5662 38.6257 12.3037 38.8788 12.2818 38.8992C11.9974 39.1726 11.4286 39.4648 11.1457 39.4477C10.8895 39.432 10.8613 39.4477 10.5769 39.1742C10.3972 39.0023 10.2925 38.6257 10.2925 38.3522C10.2925 37.7397 11.0692 37.4303 11.4286 37.2568C11.9974 36.9833 12.5943 36.9833 12.8491 37.2568C12.8694 37.2787 13.1335 37.5303 13.1038 37.5303C13.1038 37.5303 13.1038 37.8037 13.957 37.2568C15.2306 36.438 18.059 35.2425 18.5669 34.93C18.7044 34.8456 18.8106 34.7222 18.8684 34.5737C19.0169 34.1955 19.3701 33.4095 19.9264 32.8735C20.4952 32.325 22.2001 31.2296 24.4659 32.4032C28.3945 34.4362 28.7758 34.2205 28.7758 34.2205C28.7758 34.2205 29.5883 32.8735 31.862 30.4092C34.0154 28.0746 36.4094 26.5744 36.4094 26.5744L37.2626 29.0387C37.2626 29.0387 38.0455 28.448 40.8161 26.665C40.7348 25.354 39.3206 24.3085 37.5814 24.3085C37.5814 24.3085 27.6881 20.0409 24.3956 20.0409C21.1031 20.0409 11.2442 24.3085 11.2442 24.3085C9.4549 24.3085 8.00479 25.4149 8.00479 26.7791C8.00479 26.7791 7.84227 41.5416 9.4112 44.9561C11.6427 49.8066 24.394 59.9592 24.394 59.9592C24.394 59.9592 36.8485 49.8972 39.4331 45.0467C40.1567 43.6903 40.5239 40.5243 40.7036 37.2037C38.9065 38.871 36.375 40.1852 32.8168 40.7134Z" fill="white"/>
<path d="M47.9025 42.0744L47.8103 49.4877L42.816 49.4596L43.0504 30.5122L53.6625 30.57L53.6312 33.1078L48.0134 33.0766L47.9322 39.6007L53.55 39.6319L53.6625 30.57L58.7302 30.5982L58.5864 42.1306L47.9025 42.0744Z" fill="white"/>
<path d="M74.9007 41.6212L65.6121 41.5697L65.5777 44.3372L75.4397 44.3918L74.388 46.6937L60.7303 46.6186L60.896 33.3063L70.1844 33.3579L70.1547 35.7878L65.6855 35.7722L65.6433 39.1335L70.1125 39.1585L70.1844 33.3594L75.0037 33.386L74.9007 41.6212Z" fill="white"/>
<path d="M77.4397 46.6202L77.6053 33.3079L91.7615 33.386L90.8583 35.7535L82.3699 35.7066L82.2636 44.2731L91.5771 44.3247L90.5489 46.6921L77.4397 46.6202Z" fill="white"/>
<path d="M103.819 41.8088L109.141 49.5158L103.749 49.4861L98.668 42.3401L98.581 49.458L93.7615 49.4315L93.9959 30.4841L98.815 30.5107L98.689 40.7258L103.439 36.1707L109.407 36.2035L103.819 41.8088Z" fill="white"/>
<path d="M128.41 49.5198L111.407 49.426L111.438 46.9554L123.347 47.021L123.452 38.6186L128.545 38.6467L128.41 49.5198ZM116.731 32.9133L116.661 38.5811L123.452 38.6186L123.422 41.047L111.563 40.9923L111.693 30.4802L129.245 30.5771L128.267 32.9774L116.731 32.9133Z" fill="white"/>
<path d="M136.2 38.5217L136.064 49.4619L131.245 49.4354L131.479 30.488L136.298 30.5146L136.228 36.1496L140.747 36.1746L140.718 38.5389L136.2 38.5217ZM145.426 49.5119L140.583 49.4854L140.749 36.173L145.592 36.1996L145.426 49.5119Z" fill="white"/>
<path d="M152.412 49.487L147.592 49.4604L147.758 36.1481L152.577 36.1746L152.412 49.487ZM147.828 30.5131L152.648 30.5396L152.598 34.626L147.778 34.5995L147.828 30.5131Z" fill="white"/>
<path d="M168.818 41.6213L159.53 41.5697L159.495 44.3372L169.357 44.3919L168.306 46.6937L154.648 46.6187L154.813 33.3064L164.102 33.3579L164.072 35.7879L159.603 35.7722L159.561 39.1335L164.03 39.1585L164.102 33.3595L168.921 33.3861L168.818 41.6213Z" fill="white"/>
<path d="M176.324 49.487L171.357 49.4604L171.591 30.5131L176.559 30.5397L176.324 49.487Z" fill="white"/>
<path d="M193.075 30.5404L192.841 49.4877L178.559 49.4096L178.725 36.0972L188.187 36.1488L188.157 38.5131L183.513 38.4959L183.407 47.0624L188.051 47.0874L188.187 36.1472L188.257 30.5122L193.075 30.5404Z" fill="white"/>
</g>
<defs>
<clipPath id="clip0_3804_140967">
<rect width="201" height="80" fill="white"/>
</clipPath>
</defs>
</svg>
