<svg width="380" height="67" viewBox="0 0 380 67" fill="none" xmlns="http://www.w3.org/2000/svg">
<g clip-path="url(#clip0_2024_73111)">
<path d="M192.509 13.6814C201.245 13.6814 206.059 18.1724 206.059 25.1621C206.059 32.1519 201.245 36.6467 192.509 36.6467H182.12V53.6747H175.321V13.6814H192.509ZM191.468 31.3839C196.469 31.3839 199.136 29.0877 199.136 25.1465C199.136 21.2053 196.469 18.9091 191.468 18.9091H182.112V31.3527L191.468 31.3839Z" fill="white"/>
<path d="M274.892 53.7604V50.326H274.69C272.865 52.817 269.279 53.893 266.113 53.893C261.268 53.893 257.147 50.8172 257.147 45.7454C257.147 39.8589 261.139 37.6836 268.265 36.9117C273.259 36.3504 274.569 35.4654 274.569 33.793C274.569 31.5359 273.138 30.0077 269.575 30.0077C266.986 30.0077 264.589 31.3761 263.704 34.3739L258.133 33.2863C259.279 28.312 263.77 25.3258 269.723 25.3258C277.633 25.3258 280.638 29.0527 280.638 33.8437V53.7994L274.892 53.7604ZM274.596 39.4807C273.766 40.3384 271.002 40.7789 268.261 41.1375C265.606 41.5274 263.353 42.8255 263.353 45.6012C263.353 47.9636 264.913 49.3631 267.462 49.3631C270.631 49.3631 274.596 47.3515 274.596 42.541V39.4807Z" fill="white"/>
<path d="M363.007 53.7604V50.326H362.8C360.98 52.817 357.389 53.893 354.224 53.893C349.378 53.893 345.258 50.8172 345.258 45.7454C345.258 39.8589 349.25 37.6836 356.38 36.9117C361.374 36.3504 362.68 35.4654 362.68 33.793C362.68 31.5359 361.253 30.0077 357.686 30.0077C355.097 30.0077 352.7 31.3761 351.815 34.3739L346.248 33.2863C347.39 28.312 351.881 25.3258 357.834 25.3258C365.744 25.3258 368.749 29.0527 368.749 33.8437V53.7994L363.007 53.7604ZM362.699 39.4807C361.869 40.3384 359.109 40.7789 356.364 41.1375C353.709 41.5274 351.456 42.8255 351.456 45.6012C351.456 47.9636 353.016 49.3631 355.565 49.3631C358.738 49.3631 362.699 47.3515 362.699 42.541V39.4807Z" fill="white"/>
<path d="M291.893 50.1194H291.679V65.6933H285.41V26.2614H291.39V29.7154H291.605C293.222 27.0294 296.407 25.6416 300.306 25.6416C307.685 25.6416 312.999 31.1967 312.999 39.7302C312.999 48.2637 307.685 53.8345 300.353 53.8345C296.427 53.8345 293.476 52.4584 291.893 50.1194ZM291.289 39.7342C291.289 45.6635 294.287 49.1175 298.926 49.1175C303.623 49.1175 306.609 45.6635 306.609 39.7342C306.609 33.8048 303.623 30.3781 298.926 30.3781C294.287 30.3625 291.289 33.8125 291.289 39.7342Z" fill="white"/>
<path d="M322.499 13.9894V20.3281H316.04V13.9894H322.499ZM322.499 26.2809V53.9047H316.04V26.2809H322.499Z" fill="white"/>
<path d="M339.874 48.3339C340.932 48.3524 341.985 48.1997 342.993 47.8817V53.0548C342.311 53.3511 340.264 53.7215 338.467 53.7215C333.15 53.7215 330.569 52.0685 330.569 46.6264V30.6978H325.821V26.0704H330.557V17.8839H337.021V26.0704H343.258V30.6978H337.021V45.7493C337.021 47.9324 337.91 48.3339 339.874 48.3339Z" fill="white"/>
<path d="M380.004 13.0304V53.8774H373.225V13.0304H380.004Z" fill="white"/>
<path d="M236.393 48.1936C229.376 48.1936 224.678 42.9581 224.678 33.3213C224.678 23.7821 229.356 18.5466 236.393 18.5466C241.616 18.5466 245.008 21.6925 246.415 25.4701L246.981 27.3335L253.881 26.164L253.226 24.1524C251.429 18.7649 245.71 12.8004 236.393 12.8004C225.321 12.8004 217.606 20.5971 217.606 33.3174C217.606 46.1235 225.321 53.9281 236.393 53.9281C246.747 53.9281 252.493 46.7512 253.881 40.0148L246.918 39.0792C245.792 43.8976 242.564 48.1936 236.393 48.1936Z" fill="white"/>
<path d="M152.855 48.1936C145.837 48.1936 141.159 42.9581 141.159 33.3213C141.159 23.7821 145.837 18.5466 152.855 18.5466C158.078 18.5466 161.47 21.6925 162.877 25.4701L163.442 27.3335L170.343 26.164L169.688 24.1524C167.891 18.7649 162.172 12.8004 152.855 12.8004C141.783 12.8004 134.068 20.5971 134.068 33.3174C134.068 46.1235 141.783 53.9281 152.855 53.9281C163.209 53.9281 168.955 46.7512 170.343 40.0148L163.372 39.0753C162.265 43.8976 159.037 48.1936 152.855 48.1936Z" fill="white"/>
<path d="M131.375 51.2382L125.843 45.4141C128.187 41.881 129.434 37.7331 129.425 33.4929C129.425 21.9771 120.506 12.6094 109.544 12.6094C98.5815 12.6094 89.6621 21.9654 89.6621 33.4929C89.6621 45.0203 98.5854 54.3725 109.544 54.3725C113.943 54.3604 118.203 52.8337 121.609 50.0492L127.067 55.7096L131.375 51.2382ZM109.544 47.5815C102.527 47.5815 96.8468 41.274 96.8468 33.4929C96.8468 25.7118 102.531 19.4003 109.544 19.4003C116.557 19.4003 122.241 25.7118 122.241 33.4929C122.245 35.7674 121.741 38.0142 120.767 40.0694L117.103 36.2061L112.444 40.5801L116.783 45.0671C114.718 46.6932 112.169 47.5835 109.54 47.5971L109.544 47.5815Z" fill="white"/>
<path d="M64.7089 49.1565V65.9194C59.1925 65.8967 53.7745 64.4563 48.9751 61.7365C43.9324 58.9083 39.7344 54.7874 36.8134 49.7978C33.8925 44.8082 32.354 39.1303 32.3564 33.3486H49.1194C49.1241 36.9261 50.3412 40.3964 52.5722 43.193C54.8031 45.9897 57.9161 47.9476 61.4031 48.7472C62.4866 49.0048 63.5953 49.142 64.7089 49.1565V49.1565Z" fill="white"/>
<path d="M65.1533 32.8731H48.3904C48.2364 29.4154 46.9526 26.1036 44.736 23.4455C42.5193 20.7873 39.4921 18.9295 36.1184 18.1568C34.9675 17.8938 33.7904 17.763 32.6098 17.7669C28.4194 17.7354 24.3881 19.3698 21.4027 22.3106C18.4173 25.2513 16.7224 29.2576 16.6909 33.4481C16.6594 37.6385 18.2938 41.6698 21.2346 44.6552C24.1753 47.6406 28.1816 49.3354 32.372 49.367V66.1299C26.6321 66.0857 21.0058 64.5251 16.0632 61.6064C11.1206 58.6876 7.0372 54.5143 4.22675 49.5093C1.4163 44.5043 -0.0213771 38.8454 0.0593761 33.1059C0.140129 27.3663 1.73644 21.7501 4.68659 16.8261C7.63674 11.9022 11.8359 7.84544 16.8587 5.06688C21.8815 2.28833 27.5494 0.886693 33.2883 1.00396C39.0272 1.12123 44.6332 2.75324 49.5383 5.73465C54.4434 8.71607 58.4733 12.941 61.2199 17.9813C63.7186 22.5531 65.0685 27.6637 65.1533 32.8731V32.8731Z" fill="white"/>
</g>
<defs>
<clipPath id="clip0_2024_73111">
<rect width="380" height="65.1532" fill="white" transform="translate(0 0.988388)"/>
</clipPath>
</defs>
</svg>
